<svg version="1.1" id="Layer_1" xmlns="http://www.w3.org/2000/svg" xmlns:xlink="http://www.w3.org/1999/xlink" x="0px" y="0px"
	 width="100%" viewBox="0 0 800 800" enable-background="new 0 0 800 800" xml:space="preserve">
<path fill="#0F0F0F" opacity="1.000000" stroke="none" 
	d="
M801.000000,316.000000 
	C801.000000,478.000000 801.000000,639.500000 801.000000,801.000000 
	C534.333313,801.000000 267.666656,801.000000 1.000000,801.000000 
	C1.000000,534.333313 1.000000,267.666656 1.000000,1.000000 
	C267.666656,1.000000 534.333313,1.000000 801.000000,1.000000 
	C801.000000,105.833336 801.000000,210.666672 801.000000,316.000000 
M448.399536,257.466919 
	C450.003571,256.293060 451.548798,255.027191 453.220398,253.959091 
	C479.277496,237.309586 505.356506,220.694366 531.408081,204.036285 
	C533.140625,202.928497 534.693787,201.540283 536.837402,199.892853 
	C534.756104,198.361694 533.370544,197.215790 531.866638,196.255035 
	C510.431366,182.561157 488.945557,168.945999 467.551605,155.187973 
	C460.162170,150.435959 452.991699,145.343475 446.539001,140.188721 
	C461.424194,136.116058 476.548492,135.797348 491.618958,138.352020 
	C514.910583,142.300293 532.377563,154.593384 541.636902,176.708344 
	C545.337891,185.547668 547.496582,195.072540 549.874023,204.408417 
	C550.975891,208.735092 552.574463,210.278748 557.120728,209.022476 
	C583.940918,201.611252 610.796692,194.327057 637.680237,187.148972 
	C641.242004,186.197952 642.476440,184.664734 642.131775,180.876312 
	C639.076538,147.288940 626.025452,118.086784 602.983643,93.655579 
	C582.025269,71.433426 555.719482,58.171967 526.222229,51.186077 
	C499.251770,44.798626 471.893005,43.425240 444.315674,45.954906 
	C418.508972,48.322147 393.823578,54.624249 370.708618,66.615204 
	C341.179077,81.933731 318.370453,103.794075 303.005432,133.619171 
	C291.169464,156.593994 286.424988,181.050369 286.325745,206.404922 
	C286.267365,221.321350 288.392548,236.256256 289.745789,251.163773 
	C290.359833,257.927887 289.636932,259.008087 282.645477,259.015747 
	C262.647186,259.037628 242.648849,259.008087 222.650589,259.036163 
	C215.598846,259.046051 215.029434,259.632141 215.021805,266.816071 
	C214.999161,288.147583 214.999374,309.479156 215.022247,330.810669 
	C215.029495,337.559418 215.444427,337.986969 222.048370,337.997589 
	C239.880142,338.026306 257.712006,338.007935 275.543823,338.009857 
	C283.376495,338.010681 291.211884,338.140167 299.040710,337.968262 
	C303.272308,337.875397 305.303192,339.459595 304.988434,343.808655 
	C304.856476,345.632050 304.975372,347.473389 304.975372,349.306549 
	C304.975830,448.464813 304.975525,547.623108 304.975952,646.781372 
	C304.976074,677.612122 305.027466,708.442993 304.923523,739.273376 
	C304.908630,743.697449 305.942841,746.057617 311.019165,746.038086 
	C346.015656,745.903259 381.013092,745.917236 416.009766,746.027283 
	C420.638275,746.041931 422.378479,744.150635 422.024689,739.735291 
	C421.878723,737.913940 422.006165,736.070862 422.006165,734.237671 
	C422.006470,605.415283 422.006165,476.592834 422.007141,347.770416 
	C422.007233,338.013184 422.011475,338.010345 431.976257,338.010132 
	C489.471405,338.009003 546.966553,338.011566 604.461670,338.006836 
	C612.966064,338.006134 612.975952,337.991333 612.978638,329.293518 
	C612.984863,308.961914 612.985107,288.630280 612.978455,268.298676 
	C612.975464,259.160706 612.848755,259.028290 603.825989,259.027313 
	C554.496826,259.022125 505.167664,259.040070 455.838593,258.981018 
	C453.225006,258.977875 450.612122,258.345398 448.399536,257.466919 
z"/>
<path fill="#020000" opacity="1.000000" stroke="none" 
	d="
M447.998932,258.005920 
	C450.612122,258.345398 453.225006,258.977875 455.838593,258.981018 
	C505.167664,259.040070 554.496826,259.022125 603.825989,259.027313 
	C612.848755,259.028290 612.975464,259.160706 612.978455,268.298676 
	C612.985107,288.630280 612.984863,308.961914 612.978638,329.293518 
	C612.975952,337.991333 612.966064,338.006134 604.461670,338.006836 
	C546.966553,338.011566 489.471405,338.009003 431.976257,338.010132 
	C422.011475,338.010345 422.007233,338.013184 422.007141,347.770416 
	C422.006165,476.592834 422.006470,605.415283 422.006165,734.237671 
	C422.006165,736.070862 421.878723,737.913940 422.024689,739.735291 
	C422.378479,744.150635 420.638275,746.041931 416.009766,746.027283 
	C381.013092,745.917236 346.015656,745.903259 311.019165,746.038086 
	C305.942841,746.057617 304.908630,743.697449 304.923523,739.273376 
	C305.027466,708.442993 304.976074,677.612122 304.975952,646.781372 
	C304.975525,547.623108 304.975830,448.464813 304.975372,349.306549 
	C304.975372,347.473389 304.856476,345.632050 304.988434,343.808655 
	C305.303192,339.459595 303.272308,337.875397 299.040710,337.968262 
	C291.211884,338.140167 283.376495,338.010681 275.543823,338.009857 
	C257.712006,338.007935 239.880142,338.026306 222.048370,337.997589 
	C215.444427,337.986969 215.029495,337.559418 215.022247,330.810669 
	C214.999374,309.479156 214.999161,288.147583 215.021805,266.816071 
	C215.029434,259.632141 215.598846,259.046051 222.650589,259.036163 
	C242.648849,259.008087 262.647186,259.037628 282.645477,259.015747 
	C289.636932,259.008087 290.359833,257.927887 289.745789,251.163773 
	C288.392548,236.256256 286.267365,221.321350 286.325745,206.404922 
	C286.424988,181.050369 291.169464,156.593994 303.005432,133.619171 
	C318.370453,103.794075 341.179077,81.933731 370.708618,66.615204 
	C393.823578,54.624249 418.508972,48.322147 444.315674,45.954906 
	C471.893005,43.425240 499.251770,44.798626 526.222229,51.186077 
	C555.719482,58.171967 582.025269,71.433426 602.983643,93.655579 
	C626.025452,118.086784 639.076538,147.288940 642.131775,180.876312 
	C642.476440,184.664734 641.242004,186.197952 637.680237,187.148972 
	C610.796692,194.327057 583.940918,201.611252 557.120728,209.022476 
	C552.574463,210.278748 550.975891,208.735092 549.874023,204.408417 
	C547.496582,195.072540 545.337891,185.547668 541.636902,176.708344 
	C532.377563,154.593384 514.910583,142.300293 491.618958,138.352020 
	C476.548492,135.797348 461.424194,136.116058 445.791321,140.237427 
	C442.623779,139.811951 440.074829,139.079803 439.455750,142.974518 
	C419.705933,150.717010 407.980865,165.009735 402.910583,185.031250 
	C398.754089,201.444427 400.720337,218.051910 401.493896,234.600266 
	C401.787994,240.892975 402.780518,247.151382 403.392395,253.431503 
	C403.783661,257.447021 405.750854,259.160065 409.933929,259.082458 
	C419.907257,258.897339 429.886902,259.056152 439.940521,259.321655 
	C442.677673,259.046783 445.338287,258.526337 447.998932,258.005920 
M472.522522,126.162704 
	C487.309052,126.333778 501.658295,128.557022 515.267029,134.734726 
	C537.089783,144.641190 549.047729,162.517487 555.884460,184.578888 
	C557.154236,188.676544 558.171753,192.852402 559.434448,197.462082 
	C583.568542,190.829147 607.343811,184.294846 631.142273,177.754166 
	C630.665833,174.678116 630.383850,172.366547 629.943237,170.085617 
	C621.616272,126.973457 598.474304,94.670616 559.299927,74.477417 
	C539.095398,64.062584 517.276062,58.834198 494.704987,56.670696 
	C459.786133,53.323631 425.424927,55.522129 392.391876,68.240379 
	C349.878510,84.608696 319.307953,113.127579 304.213135,156.876511 
	C295.179504,183.058517 295.957092,209.978500 298.559174,236.980423 
	C299.594696,247.725952 301.094879,258.426697 302.476776,269.923401 
	C276.891083,269.923401 251.535721,269.923401 226.281311,269.923401 
	C226.281311,289.589233 226.281311,308.493591 226.281311,328.034180 
	C256.034271,328.034180 285.412292,328.034180 315.192078,328.034180 
	C315.192078,463.933899 315.192078,599.191772 315.192078,734.689270 
	C347.491272,734.689270 379.376251,734.689270 411.894867,734.689270 
	C411.894867,599.008972 411.894867,463.635559 411.894867,327.669983 
	C475.586731,327.669983 538.647217,327.669983 601.759888,327.669983 
	C601.759888,308.155609 601.759888,289.237366 601.759888,269.816681 
	C532.860107,269.816681 464.273590,269.816681 395.577393,269.816681 
	C395.270416,268.589966 395.033997,267.820038 394.887207,267.033386 
	C390.558441,243.834061 388.836670,220.387741 390.185272,196.880310 
	C391.386780,175.936859 399.480194,157.711441 416.095734,144.191223 
	C432.184784,131.099457 451.285858,126.670990 472.522522,126.162704 
z"/>
<path fill="#292929" opacity="1.000000" stroke="none" 
	d="
M439.806976,142.906448 
	C440.074829,139.079803 442.623779,139.811951 445.382446,140.346313 
	C452.991699,145.343475 460.162170,150.435959 467.551605,155.187973 
	C488.945557,168.945999 510.431366,182.561157 531.866638,196.255035 
	C533.370544,197.215790 534.756104,198.361694 536.837402,199.892853 
	C534.693787,201.540283 533.140625,202.928497 531.408081,204.036285 
	C505.356506,220.694366 479.277496,237.309586 453.220398,253.959091 
	C451.548798,255.027191 450.003571,256.293060 448.199219,257.736389 
	C445.338287,258.526337 442.677673,259.046783 439.971649,258.846375 
	C439.886505,219.719162 439.846741,181.312805 439.806976,142.906448 
z"/>
<path fill="#E40000" opacity="1.000000" stroke="none" 
	d="
M472.044159,126.162766 
	C451.285858,126.670990 432.184784,131.099457 416.095734,144.191223 
	C399.480194,157.711441 391.386780,175.936859 390.185272,196.880310 
	C388.836670,220.387741 390.558441,243.834061 394.887207,267.033386 
	C395.033997,267.820038 395.270416,268.589966 395.577393,269.816681 
	C464.273590,269.816681 532.860107,269.816681 601.759888,269.816681 
	C601.759888,289.237366 601.759888,308.155609 601.759888,327.669983 
	C538.647217,327.669983 475.586731,327.669983 411.894867,327.669983 
	C411.894867,463.635559 411.894867,599.008972 411.894867,734.689270 
	C379.376251,734.689270 347.491272,734.689270 315.192078,734.689270 
	C315.192078,599.191772 315.192078,463.933899 315.192078,328.034180 
	C285.412292,328.034180 256.034271,328.034180 226.281311,328.034180 
	C226.281311,308.493591 226.281311,289.589233 226.281311,269.923401 
	C251.535721,269.923401 276.891083,269.923401 302.476776,269.923401 
	C301.094879,258.426697 299.594696,247.725952 298.559174,236.980423 
	C295.957092,209.978500 295.179504,183.058517 304.213135,156.876511 
	C319.307953,113.127579 349.878510,84.608696 392.391876,68.240379 
	C425.424927,55.522129 459.786133,53.323631 494.704987,56.670696 
	C517.276062,58.834198 539.095398,64.062584 559.299927,74.477417 
	C598.474304,94.670616 621.616272,126.973457 629.943237,170.085617 
	C630.383850,172.366547 630.665833,174.678116 631.142273,177.754166 
	C607.343811,184.294846 583.568542,190.829147 559.434448,197.462082 
	C558.171753,192.852402 557.154236,188.676544 555.884460,184.578888 
	C549.047729,162.517487 537.089783,144.641190 515.267029,134.734726 
	C501.658295,128.557022 487.309052,126.333778 472.044159,126.162766 
z"/>
<path fill="#0F0F0F" opacity="1.000000" stroke="none" 
	d="
M439.455750,142.974518 
	C439.846741,181.312805 439.886505,219.719162 439.895142,258.600800 
	C429.886902,259.056152 419.907257,258.897339 409.933929,259.082458 
	C405.750854,259.160065 403.783661,257.447021 403.392395,253.431503 
	C402.780518,247.151382 401.787994,240.892975 401.493896,234.600266 
	C400.720337,218.051910 398.754089,201.444427 402.910583,185.031250 
	C407.980865,165.009735 419.705933,150.717010 439.455750,142.974518 
z"/>
</svg>